HIERARCHY
ROOT Hips
{
	OFFSET 0.000000 0.000000 0.000000
	CHANNELS 6 Xposition Yposition Zposition Zrotation Yrotation Xrotation 
	JOINT LHipJoint
	{
		OFFSET 0.000000 0.000000 0.000000
		CHANNELS 3 Zrotation Yrotation Xrotation
		JOINT LeftUpLeg
		{
			OFFSET 1.363060 -1.794630 0.839290
			CHANNELS 3 Zrotation Yrotation Xrotation
			JOINT LeftLeg
			{
				OFFSET 2.448110 -6.726130 0.000000
				CHANNELS 3 Zrotation Yrotation Xrotation
				JOINT LeftFoot
				{
					OFFSET 2.562200 -7.039590 0.000000
					CHANNELS 3 Zrotation Yrotation Xrotation
					JOINT LeftToeBase
					{
						OFFSET 0.157640 -0.433110 2.322550
						CHANNELS 3 Zrotation Yrotation Xrotation
						End Site
						{
							OFFSET 0.000000 0.000000 0.000000
						}
					}
				}
			}
		}
	}
	JOINT RHipJoint
	{
		OFFSET 0.000000 0.000000 0.000000
		CHANNELS 3 Zrotation Yrotation Xrotation
		JOINT RightUpLeg
		{
			OFFSET -1.305520 -1.794630 0.839290
			CHANNELS 3 Zrotation Yrotation Xrotation
			JOINT RightLeg
			{
				OFFSET -2.542530 -6.985550 0.000000
				CHANNELS 3 Zrotation Yrotation Xrotation
				JOINT RightFoot
				{
					OFFSET -2.568260 -7.056230 0.000000
					CHANNELS 3 Zrotation Yrotation Xrotation
					JOINT RightToeBase
					{
						OFFSET -0.164730 -0.452590 2.363150
						CHANNELS 3 Zrotation Yrotation Xrotation
						End Site
						{
							OFFSET 0.000000 0.000000 0.000000
						}
					}
				}
			}
		}
	}
}
MOTION
Frames: 14
Frame Time: 0.008333
-10.972040 17.067256 0.215889 53.913265 84.709513 74.074733 -12.467647 5.642824 1.548008 -10.065171 8.976065 -3.035108 -1.208258 1.194469 20.178486 0.324701 -7.755457 23.346495 -3.841100 0.000001 -76.516900 8.205368 -1.094941 3.215027 9.250690 0.417961 -40.704654 2.549874 -0.954203 25.299062 -0.760148 -1.259316 -7.428083 -0.300301 -0.000000 -28.879300
-10.770660 17.011585 0.232660 55.997146 84.655846 75.961145 -12.579353 5.674247 1.516940 -9.733551 9.363761 -3.410796 -1.085595 1.278220 22.143747 0.391154 -8.349722 24.062938 -4.250599 0.000000 -74.849300 8.205299 -1.055963 3.114978 9.040269 0.467924 -41.046288 2.361433 -1.220745 28.484800 -0.953629 -1.620428 -9.465743 -0.149000 -0.000000 -26.328500
-10.571908 16.961694 0.248292 58.857618 84.672057 78.593074 -12.708289 5.669127 1.479262 -9.324954 9.701725 -3.883245 -0.939868 1.356809 24.286233 0.472864 -8.733878 24.778384 -4.577100 -0.000000 -72.652500 8.195346 -1.048598 2.971586 8.924365 0.335728 -41.114719 2.212913 -1.453758 31.337720 -1.115539 -1.896127 -11.339185 0.015899 -0.000000 -24.850299
-10.375461 16.918941 0.262607 62.638301 84.758186 82.133182 -12.850335 5.620708 1.436001 -8.845935 9.982186 -4.463223 -0.773695 1.425392 26.570253 0.567264 -8.833090 25.444760 -4.769400 0.000000 -70.033400 8.168048 -1.087616 2.801824 8.919268 0.039513 -40.908566 2.115252 -1.644193 33.692268 -1.243793 -2.088916 -12.988785 0.176500 -0.000000 -24.435700
-10.180995 16.884192 0.275662 67.556525 84.906966 86.813163 -12.993760 5.523438 1.388225 -8.310911 10.197038 -5.150081 -0.590621 1.479857 28.951127 0.670602 -8.591656 26.010005 -4.782000 0.000000 -67.159599 8.122915 -1.180680 2.620018 9.028233 -0.400023 -40.452687 2.073367 -1.792242 35.468493 -1.340974 -2.203367 -14.403120 0.321700 -0.000000 -24.905000
-9.988073 16.857877 0.287876 73.896428 85.101881 92.932940 -13.117798 5.374542 1.338521 -7.742333 10.335642 -5.943179 -0.394920 1.517003 31.383659 0.778507 -7.983889 26.419777 -4.584900 0.000001 -64.215000 8.070168 -1.327755 2.442556 9.240773 -0.950415 -39.792121 2.085882 -1.902712 36.648199 -1.413497 -2.257653 -15.589909 0.445601 0.000000 -26.031900
-9.796268 16.840015 0.299892 81.866619 85.319850 100.713068 -13.192844 5.178088 1.288037 -7.164643 10.391823 -6.835126 -0.193020 1.536445 33.821303 0.886845 -7.021017 26.623653 -4.172600 -0.000000 -61.389800 8.032808 -1.517527 2.282965 9.539547 -1.572777 -38.973811 2.146741 -1.981138 37.260726 -1.468439 -2.275178 -16.569260 0.547600 -0.000000 -27.526400
-9.605199 16.830281 0.312343 91.344247 85.536471 110.040392 -13.187752 4.950482 1.237020 -6.602429 10.368146 -7.819771 0.003887 1.543308 36.218822 0.992169 -5.753595 26.578388 -3.568700 0.000000 -58.830700 8.041729 -1.724625 2.150280 9.905624 -2.217727 -38.039436 2.244233 -2.028804 37.368969 -1.512218 -2.282148 -17.360765 0.630100 0.000000 -29.098800
-9.414511 16.828120 0.325780 101.606350 85.734122 120.200834 -13.088023 4.722593 1.186492 -6.084308 10.279120 -8.893256 0.179144 1.550023 38.531378 1.091992 -4.263251 26.253057 -2.823000 0.000000 -56.626500 8.119231 -1.912045 2.046418 10.314715 -2.828898 -37.022603 2.360282 -2.039581 37.060154 -1.549535 -2.300536 -17.978192 0.696900 -0.000001 -30.500100
-9.223928 16.832969 0.340428 111.511114 85.914036 130.058904 -12.915324 4.525705 1.139433 -5.637396 10.148315 -10.053768 0.317552 1.571383 40.718611 1.184164 -2.656264 25.635081 -2.005800 -0.000000 -54.809000 8.256328 -2.050006 1.968273 10.739133 -3.349249 -35.947788 2.474097 -2.004333 36.431327 -1.584461 -2.350397 -18.426625 0.752200 -0.000000 -31.566100
-9.033226 16.844097 0.356908 119.629082 86.060909 138.185829 -12.720788 4.377779 1.103736 -5.324867 9.981450 -11.284911 0.412989 1.616293 42.740475 1.266021 -1.029751 24.735659 -1.185100 0.000000 -53.334800 8.416559 -2.126964 1.907644 11.109758 -3.767710 -34.851348 2.567401 -1.922619 35.603315 -1.615437 -2.422985 -18.714422 0.796500 0.000000 -32.228000
-8.842379 16.860926 0.375030 125.295433 86.170308 143.909448 -12.553252 4.265503 1.083244 -5.169562 9.779606 -12.564899 0.474544 1.679111 44.576410 1.333568 0.515452 23.579390 -0.427799 0.000000 -52.095100 8.557466 -2.165264 1.863316 11.385351 -4.084234 -33.758341 2.633608 -1.807971 34.668526 -1.642141 -2.520043 -18.842318 0.829399 -0.000000 -32.528899
-8.651113 16.883191 0.393187 129.428541 86.288969 148.150933 -12.418746 4.163591 1.074821 -5.101925 9.554542 -13.899452 0.514491 1.748788 46.229385 1.383644 1.880286 22.215175 0.207100 -0.000000 -51.175400 8.667012 -2.195843 1.849822 11.614098 -4.244283 -32.666551 2.674578 -1.673672 33.644051 -1.672959 -2.692058 -18.794525 0.854100 0.000000 -32.582700
-8.459852 16.910263 0.412541 131.110629 86.354065 149.970897 -12.327652 4.064191 1.082926 -5.204067 9.272603 -15.235572 0.539807 1.816522 47.670132 1.415319 3.055165 20.700057 0.713300 0.000001 -50.405200 8.743025 -2.224676 1.849372 11.704520 -4.344870 -31.616892 2.690199 -1.541156 32.647520 -1.690575 -2.859208 -18.584809 0.859000 0.000000 -32.552999
